<svg width="489" height="242" viewBox="0 0 489 242" fill="none" xmlns="http://www.w3.org/2000/svg">
<path d="M80.0635 64.6528V78.0532H79.0635C73.7562 78.0533 69.7092 79.3776 66.8008 81.9106C63.9328 84.4085 62.4317 88.1021 62.4316 93.1646V94.1646H49.3359V93.1646C49.336 84.4424 51.9396 77.4709 57.2432 72.3794C62.5432 67.1896 69.8619 64.6529 79.0635 64.6528H80.0635Z" fill="black" stroke="white" stroke-width="2"/>
<path d="M83.5605 64.6528V78.0532H77.9121V64.6528H83.5605Z" fill="black" stroke="white" stroke-width="2"/>
<path d="M54.832 141.133H53.832C45.619 141.133 38.4332 139.798 32.3008 137.096L32.2881 137.09C26.1413 134.277 21.3736 130.146 18.0205 124.697L18.0127 124.685V124.684C14.7622 119.231 13.1602 112.713 13.1602 105.173V104.173H28.6885V105.173C28.6885 112.345 30.8874 117.827 35.1924 121.754H35.1934C39.6202 125.7 45.7907 127.732 53.832 127.732H54.832V141.133Z" fill="black" stroke="white" stroke-width="2"/>
<path d="M28.6885 96.5732V106.173H13.1602V96.5732H28.6885Z" fill="black" stroke="white" stroke-width="2"/>
<path d="M39.3018 64.6528L39.3281 65.6265L39.6318 77.0259L39.6592 78.0532H38.6318C35.6379 78.0533 33.2541 79.5941 31.4609 82.9917C29.6429 86.4364 28.6885 91.3185 28.6885 97.7251V98.7251H13.1602V97.7251C13.1602 87.4669 15.3124 79.3682 19.749 73.5581L19.751 73.5562C24.3079 67.6215 30.5361 64.6528 38.3281 64.6528H39.3018Z" fill="black" stroke="white" stroke-width="2"/>
<path d="M62.4319 92.165V107.237H47.512V92.165H62.4319Z" fill="black" stroke="white" stroke-width="2"/>
<path d="M38.3125 64.6528C45.2833 64.5472 50.8154 67.0476 54.7764 72.186H54.7754C58.7102 77.1889 60.6083 84.2274 60.6084 93.1646V94.1646H47.5117V93.1646C47.5117 88.083 46.6606 84.3497 45.082 81.8423L45.0771 81.8345L45.0732 81.8276C43.5194 79.2686 41.4003 78.0532 38.6318 78.0532H37.6582L37.6328 77.0796L37.3281 65.6792L37.3018 64.6685L38.3125 64.6528Z" fill="black" stroke="white" stroke-width="2"/>
<path d="M80.8242 39.877V53.4287H1V39.877H80.8242Z" fill="black" stroke="white" stroke-width="2"/>
<path d="M92.832 41.7012V138.854H77.4561V41.7012H92.832Z" fill="black" stroke="white" stroke-width="2"/>
<path d="M107.424 39.877V53.4287H62.864V39.877H107.424Z" fill="black" stroke="white" stroke-width="2"/>
<path d="M135.641 71.4883L142.026 81.2168L142.583 82.0654L141.725 82.6094C137.598 85.2267 133.932 87.8392 130.724 90.4453C127.655 93.0211 125.251 95.7266 123.495 98.5566C121.775 101.328 120.91 104.437 120.91 107.909V108.909H105.381V107.909C105.381 103.346 106.107 99.3067 107.588 95.8145L107.591 95.8076L107.594 95.8018C109.164 92.2445 111.312 89.101 114.035 86.3779C116.715 83.5968 119.799 81.0272 123.285 78.668L125.914 76.8301C128.581 74.9822 131.361 73.1062 134.255 71.2021L135.092 70.6514L135.641 71.4883Z" fill="black" stroke="white" stroke-width="2"/>
<path d="M134.589 135.509H133.589C128.167 135.509 123.284 134.309 118.964 131.886L118.955 131.88C114.754 129.465 111.436 126.201 109.016 122.097L109.01 122.088C106.585 117.87 105.381 113.136 105.381 107.909V106.909H120.91V107.909C120.91 112.16 122.109 115.553 124.443 118.174C126.878 120.696 129.904 121.957 133.589 121.957H134.589V135.509Z" fill="black" stroke="white" stroke-width="2"/>
<path d="M148.113 118.76L149.177 130.16L149.238 130.81L148.667 131.127C145.897 132.667 143.406 133.811 141.202 134.545L141.172 134.555C139.027 135.199 136.493 135.509 133.589 135.509H132.589V121.958H133.589C135.823 121.958 137.896 121.666 139.814 121.093C141.772 120.406 144.047 119.37 146.643 117.972L147.973 117.256L148.113 118.76Z" fill="black" stroke="white" stroke-width="2"/>
<path d="M152.643 113.88L161.154 145.344L161.404 146.266L160.494 146.557L149.094 150.206L148.093 150.526L147.823 149.509L139.311 117.438L139.055 116.472L140.02 116.215L151.42 113.175L152.383 112.918L152.643 113.88Z" fill="black" stroke="white" stroke-width="2"/>
<path d="M175.629 82.3467L174.93 82.5674C167.909 84.7796 160.75 86 153.456 86.2285L151.995 86.2607C144.303 86.3633 137.349 85.3902 131.145 83.3223L130.443 83.0879L130.461 82.3477L130.766 70.4912L130.8 69.1504L132.076 69.5664C136.672 71.0651 141.315 72.1145 146.007 72.7148C150.795 73.2133 155.582 73.1639 160.37 72.5654C165.169 71.9654 169.817 70.9157 174.313 69.417L175.629 68.9775V82.3467Z" fill="black" stroke="white" stroke-width="2"/>
<path d="M124.558 58.2051C124.558 60.4182 125.247 62.6688 126.686 64.9707C128.101 67.1346 129.92 68.6644 132.15 69.5938L132.782 69.8574L132.765 70.543L132.461 82.3984L132.427 83.7285L131.159 83.3262C124.652 81.2603 119.381 78.195 115.394 74.1025L115.384 74.0938C111.444 69.9405 109.485 64.7724 109.485 58.6611V57.6953L110.45 57.6621L123.522 57.2061L124.558 57.1699V58.2051Z" fill="black" stroke="white" stroke-width="2"/>
<path d="M156.021 58.3574C156.021 63.6322 154.486 68.2161 151.392 72.0566C148.377 75.7995 144.593 79.1126 140.054 82.001L139.305 82.4775L138.744 81.79L131.903 73.4307L131.076 72.4189L132.268 71.8848C135.041 70.6417 137.28 68.7837 139 66.2998L139.006 66.2891L139.014 66.2793C140.82 63.8088 141.709 61.1257 141.709 58.2051V57.1924L142.721 57.2051L155.034 57.3574L156.021 57.3691V58.3574Z" fill="black" stroke="white" stroke-width="2"/>
<path d="M134.134 35.7729V48.4126H133.134C130.698 48.4126 128.692 49.343 127.053 51.2554L127.045 51.2651L127.037 51.2739C125.398 53.0954 124.558 55.3812 124.558 58.2046V59.1704L123.592 59.2046L110.521 59.6606L109.485 59.6968V58.6606C109.485 54.2488 110.485 50.319 112.514 46.9028L112.519 46.895C114.634 43.4043 117.447 40.6936 120.95 38.7827C124.558 36.7689 128.628 35.7729 133.134 35.7729H134.134Z" fill="black" stroke="white" stroke-width="2"/>
<path d="M133.133 35.7729C137.537 35.7729 141.505 36.7182 145.012 38.6313C148.517 40.5429 151.239 43.2085 153.157 46.6187C155.076 50.0314 156.021 53.9543 156.021 58.3569V59.3696L155.009 59.3569L142.697 59.2046L141.709 59.1929V58.2046C141.709 55.2704 140.864 52.9368 139.23 51.1216C137.596 49.3066 135.587 48.4126 133.133 48.4126H132.133V35.7729H133.133Z" fill="black" stroke="white" stroke-width="2"/>
<path d="M159.783 111.435C161.273 116.652 160.599 121.249 157.637 125.088C154.713 128.878 149.914 131.547 143.412 133.198L142.459 133.44L142.201 132.492L139.92 124.132L139.657 123.164L140.625 122.903C143.138 122.227 144.699 121.209 145.525 119.971L145.529 119.964L145.534 119.958C146.457 118.615 146.693 117.057 146.156 115.176L145.877 114.202L146.854 113.937L158.558 110.744L159.511 110.484L159.783 111.435Z" fill="black" stroke="white" stroke-width="2"/>
<path d="M150.141 98.2876C155.244 102.037 158.504 106.423 159.791 111.461L160.034 112.416L159.084 112.674L147.38 115.866L146.416 116.129L146.153 115.165C145.641 113.288 143.666 110.928 139.836 108.106L138.848 107.378L139.76 106.558L148.88 98.3501L149.485 97.8052L150.141 98.2876Z" fill="black" stroke="white" stroke-width="2"/>
<path d="M150.542 98.9741L153.43 122.99L153.534 123.854L152.693 124.076L141.748 126.964L140.781 127.219L140.527 126.252L136.118 109.532L135.954 108.91L136.452 108.502L148.916 98.3188L150.324 97.1685L150.542 98.9741Z" fill="black" stroke="white" stroke-width="2"/>
<path d="M223.903 39.877V53.4287H163.688V39.877H223.903Z" fill="black" stroke="white" stroke-width="2"/>
<path d="M201.104 41.0933V92.9497H186.184V41.0933H201.104Z" fill="black" stroke="white" stroke-width="2"/>
<path d="M200.8 88.2129V107.648L200.204 107.911L192.3 111.407L190.896 112.028V88.2129H200.8Z" fill="black" stroke="white" stroke-width="2"/>
<path d="M232.112 84.1089V97.813H191.656V84.1089H232.112Z" fill="black" stroke="white" stroke-width="2"/>
<path d="M195.632 86.085V96.293H194.632C192.246 96.293 190.602 96.8654 189.534 97.8516L189.531 97.8545C188.568 98.7376 188.032 100.014 188.032 101.829V102.829H175.088V101.829C175.088 96.8249 176.751 92.8647 180.172 90.1064L180.177 90.1016L180.184 90.0967C183.667 87.3762 188.528 86.085 194.632 86.085H195.632Z" fill="black" stroke="white" stroke-width="2"/>
<path d="M188.032 100.829V101.829C188.032 103.597 189.204 106.201 191.927 109.73L192.665 110.687L191.589 111.232L181.709 116.249L180.978 116.619L180.471 115.978C176.914 111.479 175.088 106.757 175.088 101.829V100.829H188.032Z" fill="black" stroke="white" stroke-width="2"/>
<path d="M195.632 92.165V109.921L195.046 110.188L181.67 116.268L180.018 117.018L180.264 115.222L183.304 93.0293L183.424 92.165H195.632Z" fill="black" stroke="white" stroke-width="2"/>
<path d="M242.6 41.7012V138.854H227.224V41.7012H242.6Z" fill="black" stroke="white" stroke-width="2"/>
<path d="M257.191 39.877V53.4287H212.632V39.877H257.191Z" fill="black" stroke="white" stroke-width="2"/>
<path d="M320.234 39.877V53.4287H247.555V39.877H320.234Z" fill="black" stroke="white" stroke-width="2"/>
<path d="M285.883 120.765H284.883C280.354 120.765 276.222 119.656 272.512 117.43L272.498 117.421L272.483 117.413C268.892 115.088 266.042 111.972 263.938 108.081L263.932 108.067L263.924 108.052C261.918 104.04 260.931 99.4235 260.931 94.229V93.229H276.459V94.229C276.459 98.7936 277.256 101.977 278.684 103.955C280.199 105.816 282.23 106.757 284.883 106.757H285.883V120.765Z" fill="black" stroke="white" stroke-width="2"/>
<path d="M308.683 93.229V94.229C308.683 99.4312 307.642 104.055 305.528 108.071L305.522 108.081C303.419 111.972 300.57 115.089 296.978 117.413L296.969 117.418L296.96 117.423C293.341 119.659 289.204 120.765 284.579 120.765H283.579V106.757H284.579C287.355 106.757 289.37 105.802 290.775 103.958L290.78 103.954C292.304 101.981 293.155 98.8016 293.155 94.229V93.229H308.683Z" fill="black" stroke="white" stroke-width="2"/>
<path d="M276.459 41.0933V95.229H260.931V41.0933H276.459Z" fill="black" stroke="white" stroke-width="2"/>
<path d="M308.683 41.0933V95.229H293.155V41.0933H308.683Z" fill="black" stroke="white" stroke-width="2"/>
<path d="M336.803 41.7012V138.854H321.427V41.7012H336.803Z" fill="black" stroke="white" stroke-width="2"/>
<path d="M351.394 39.877V53.4287H306.835V39.877H351.394Z" fill="black" stroke="white" stroke-width="2"/>
<path d="M452.641 39.877V53.4287H406.713V39.877H452.641Z" fill="black" stroke="white" stroke-width="2"/>
<path d="M396.249 39.877V53.4287H341.961V39.877H396.249Z" fill="black" stroke="white" stroke-width="2"/>
<path d="M367.217 94.9009V98.4204H352.145V94.9009H367.217Z" fill="black" stroke="white" stroke-width="2"/>
<path d="M402.025 90.645V102.677H391.209V90.645H402.025Z" fill="black" stroke="white" stroke-width="2"/>
<path d="M378.025 64.6528L378.151 65.5073L379.823 76.9077L379.991 78.0532H378.833C375.347 78.0532 372.554 79.5822 370.392 82.7749L370.393 82.7759C368.313 85.896 367.217 90.287 367.217 96.0532V97.0532H352.145V96.0532C352.145 89.6726 353.122 84.1592 355.115 79.5444L355.12 79.5347C357.208 74.8353 360.103 71.1836 363.823 68.6313L364.184 68.3862C367.934 65.8901 372.271 64.6529 377.161 64.6528H378.025Z" fill="black" stroke="white" stroke-width="2"/>
<path d="M377.161 64.6528C381.889 64.6528 386.127 65.8615 389.843 68.2954L390.547 68.7427C394.015 71.0282 396.738 74.1029 398.713 77.9468H398.714C400.93 82.0623 402.025 86.7383 402.025 91.9487V92.9487H391.209V91.9487C391.209 87.9071 390.013 84.607 387.663 81.9751C385.322 79.3532 382.403 78.0532 378.833 78.0532H377.969L377.844 77.1978L376.172 65.7983L376.004 64.6528H377.161Z" fill="black" stroke="white" stroke-width="2"/>
<path d="M367.217 96.269V97.269C367.217 103.027 368.311 107.473 370.395 110.7C372.55 113.781 375.339 115.269 378.833 115.269H379.991L379.823 116.415L378.151 127.814L378.025 128.669H377.161C372.122 128.669 367.668 127.406 363.838 124.853L363.828 124.846C360.105 122.294 357.209 118.64 355.12 113.939L355.114 113.927L355.109 113.915C353.124 109.108 352.145 103.553 352.145 97.269V96.269H367.217Z" fill="black" stroke="white" stroke-width="2"/>
<path d="M402.025 100.525V101.525C402.025 106.638 400.928 111.263 398.714 115.375L398.713 115.375C396.608 119.472 393.655 122.742 389.859 125.167L389.854 125.171C386.133 127.51 381.892 128.668 377.161 128.668H376.004L376.172 127.524L377.844 116.124L377.969 115.269H378.833C382.403 115.269 385.322 113.969 387.663 111.347C390.017 108.711 391.209 105.458 391.209 101.525V100.525H402.025Z" fill="black" stroke="white" stroke-width="2"/>
<path d="M420.633 65.1089C425.768 65.1089 430.229 66.369 433.967 68.9321C437.689 71.4847 440.535 75.1379 442.522 79.8384C444.619 84.5548 445.649 90.1217 445.649 96.5093V97.5093H430.577V96.5093C430.577 90.6446 429.431 86.2118 427.261 83.0972L427.249 83.0796C425.195 79.9992 422.46 78.5093 418.961 78.5093H417.804L417.972 77.3638L419.644 65.9634L419.769 65.1089H420.633Z" fill="black" stroke="white" stroke-width="2"/>
<path d="M421.791 65.1089L421.623 66.2544L419.951 77.6538L419.825 78.5093H418.961C415.392 78.5093 412.472 79.8093 410.131 82.4312L410.119 82.4438C407.781 84.9686 406.586 88.2103 406.585 92.2524V93.2524H395.769V92.2524C395.769 87.1476 396.812 82.5295 398.919 78.4204L398.923 78.4116L398.928 78.4028C400.998 74.5592 403.772 71.4849 407.248 69.1987L407.952 68.7515C411.761 66.3221 415.997 65.1089 420.633 65.1089H421.791Z" fill="black" stroke="white" stroke-width="2"/>
<path d="M445.649 95.3569V98.5728H430.577V95.3569H445.649Z" fill="black" stroke="white" stroke-width="2"/>
<path d="M445.649 96.5732V97.5732C445.649 103.568 444.563 108.884 442.363 113.498C440.26 118.02 437.15 121.66 433.044 124.397L433.036 124.402L433.029 124.407C428.933 127.033 424.074 128.696 418.481 129.421L417.517 129.546L417.365 128.585L415.542 117.033L415.389 116.073L416.344 115.895C421.011 115.02 424.471 113.001 426.828 109.89L426.831 109.886C429.308 106.646 430.577 102.565 430.577 97.5732V96.5732H445.649Z" fill="black" stroke="white" stroke-width="2"/>
<path d="M406.585 41.7012V138.854H391.209V41.7012H406.585Z" fill="black" stroke="white" stroke-width="2"/>
<path d="M421.177 39.877V53.4287H376.617V39.877H421.177Z" fill="black" stroke="white" stroke-width="2"/>
<path d="M473.015 41.7012V138.854H457.639V41.7012H473.015Z" fill="black" stroke="white" stroke-width="2"/>
<path d="M487.606 39.877V53.4287H443.047V39.877H487.606Z" fill="black" stroke="white" stroke-width="2"/>
<path d="M453.246 12.5161L471.333 40.3315L472.338 41.8774H455.667L455.371 41.4263L441.691 20.6021L441.161 19.7944L441.949 19.2368L451.83 12.2446L452.678 11.644L453.246 12.5161Z" fill="black" stroke="white" stroke-width="2"/>
<path d="M419.084 5.80566C426.388 1.69083 432.976 0.158195 438.777 1.44238L438.778 1.44141C438.78 1.44181 438.782 1.44295 438.784 1.44336C438.786 1.44393 438.789 1.44377 438.792 1.44434L438.791 1.44531C444.49 2.63229 449.3 6.38991 453.248 12.5195L453.766 13.3242L452.985 13.877L443.104 20.8691L442.243 21.4795L441.68 20.585C439.522 17.1518 437.221 15.257 434.828 14.6367V14.6357C432.361 14.0225 429.303 14.6935 425.565 16.9561L424.693 17.4834L424.182 16.6035L418.71 7.17871L418.202 6.30273L419.084 5.80566Z" fill="black" stroke="white" stroke-width="2"/>
<path d="M40.656 123.749C45.6747 123.749 50.2042 124.9 54.2185 127.222C58.3227 129.537 61.5444 132.704 63.865 136.712C66.1924 140.732 67.3445 145.317 67.3445 150.438V151.438H52.1199V150.438C52.1199 146.709 50.981 143.725 48.7507 141.401L48.7361 141.387L48.7234 141.372C46.5843 138.954 43.9189 137.757 40.656 137.757H39.656V123.749H40.656Z" fill="black" stroke="white" stroke-width="2"/>
<path d="M41.8076 123.749V137.757H40.8076C37.6393 137.757 34.9009 138.91 32.5469 141.264C30.2972 143.513 28.9627 146.433 28.5781 150.086L28.4639 151.177L27.3877 150.962L13.5254 148.189L13.6768 147.24C14.4072 142.649 15.9774 138.602 18.4033 135.121L18.4092 135.113L18.415 135.104C20.9409 131.631 24.1533 128.895 28.0391 126.899C31.9362 124.797 36.1983 123.749 40.8076 123.749H41.8076Z" fill="black" stroke="white" stroke-width="2"/>
<path d="M89.8401 173.149V186.549H54.552V173.149H89.8401Z" fill="black" stroke="white" stroke-width="2"/>
<path d="M38.6799 164.333C44.2071 164.333 49.1478 165.586 53.4729 168.118C57.7852 170.642 61.1565 174.119 63.5735 178.532H63.5725C66.0948 182.852 67.344 187.784 67.344 193.301V194.301H52.7278V193.301C52.7277 188.752 51.3797 185.107 48.7405 182.279L48.7356 182.273L48.7297 182.268C46.0882 179.343 42.7638 177.885 38.6799 177.885H37.6799V164.333H38.6799Z" fill="black" stroke="white" stroke-width="2"/>
<path d="M41.3521 222.421H40.3521C31.7218 222.421 24.8459 219.76 19.8569 214.347L19.8491 214.339C14.9744 208.934 12.6001 201.472 12.6001 192.085V191.085H27.52V192.085C27.52 197.524 28.7074 201.637 30.9585 204.545C33.181 207.416 36.2697 208.869 40.3521 208.869H41.3521V222.421Z" fill="black" stroke="white" stroke-width="2"/>
<path d="M67.3435 192.149V193.149C67.3435 199.139 66.3112 204.36 64.2068 208.779C62.0953 213.213 58.9655 216.613 54.8269 218.948L54.8259 218.947C50.791 221.28 45.9005 222.421 40.2 222.421H39.2V208.869H40.2C44.3075 208.869 47.339 207.498 49.448 204.839C51.5914 202.137 52.7283 198.282 52.7283 193.149V192.149H67.3435Z" fill="black" stroke="white" stroke-width="2"/>
<path d="M40.592 163.877V177.885H31.2961V163.877H40.592Z" fill="black" stroke="white" stroke-width="2"/>
<path d="M67.3442 149.285V150.285C67.3442 155.414 66.1385 160.097 63.7153 164.312L63.7095 164.321C61.2915 168.421 57.9784 171.732 53.7866 174.247L53.7788 174.251L53.77 174.256C49.5495 176.683 44.7639 177.885 39.4399 177.885H38.4399V163.877H39.4399C43.1321 163.877 46.1024 162.612 48.4341 160.094L48.4351 160.093C50.8847 157.455 52.1196 154.208 52.1196 150.285V149.285H67.3442Z" fill="black" stroke="white" stroke-width="2"/>
<path d="M93.032 125.877V224.853H77.656V125.877H93.032Z" fill="black" stroke="white" stroke-width="2"/>
<path d="M107.624 125.877V139.429H81.76V125.877H107.624Z" fill="black" stroke="white" stroke-width="2"/>
<path d="M187.014 125.877V224.853H171.638V125.877H187.014Z" fill="black" stroke="white" stroke-width="2"/>
<path d="M201.607 125.877V139.429H175.742V125.877H201.607Z" fill="black" stroke="white" stroke-width="2"/>
<path d="M135.93 157.488L142.315 167.217L142.872 168.065L142.014 168.609C137.887 171.227 134.221 173.839 131.013 176.445C127.944 179.021 125.54 181.727 123.784 184.557C122.064 187.328 121.199 190.437 121.199 193.909V194.909H105.67V193.909C105.67 189.346 106.396 185.307 107.877 181.814L107.88 181.808L107.883 181.802C109.453 178.245 111.601 175.101 114.324 172.378C117.004 169.597 120.088 167.027 123.574 164.668L126.203 162.83C128.87 160.982 131.65 159.106 134.544 157.202L135.381 156.651L135.93 157.488Z" fill="black" stroke="white" stroke-width="2"/>
<path d="M134.878 221.509H133.878C128.456 221.509 123.573 220.309 119.253 217.886L119.244 217.88C115.044 215.465 111.725 212.201 109.305 208.098L109.299 208.088C106.874 203.87 105.67 199.136 105.67 193.909V192.909H121.199V193.909C121.199 198.16 122.398 201.553 124.732 204.174C127.167 206.696 130.193 207.957 133.878 207.957H134.878V221.509Z" fill="black" stroke="white" stroke-width="2"/>
<path d="M148.402 204.76L149.466 216.16L149.527 216.81L148.957 217.127C146.186 218.667 143.695 219.811 141.491 220.545L141.461 220.555C139.316 221.199 136.782 221.509 133.878 221.509H132.878V207.957H133.878C136.112 207.957 138.185 207.666 140.103 207.093C142.061 206.406 144.336 205.37 146.932 203.972L148.262 203.256L148.402 204.76Z" fill="black" stroke="white" stroke-width="2"/>
<path d="M152.932 199.88L161.443 231.344L161.693 232.266L160.783 232.557L149.383 236.206L148.382 236.526L148.112 235.509L139.6 203.438L139.344 202.472L140.309 202.215L151.709 199.175L152.672 198.918L152.932 199.88Z" fill="black" stroke="white" stroke-width="2"/>
<path d="M175.918 168.347L175.219 168.567C168.198 170.78 161.039 172 153.745 172.229L152.284 172.261C144.592 172.363 137.638 171.39 131.434 169.322L130.732 169.088L130.75 168.348L131.055 156.491L131.089 155.15L132.365 155.566C136.967 157.067 141.618 158.117 146.317 158.717H146.316C151.097 159.213 155.877 159.163 160.659 158.565C165.458 157.965 170.106 156.916 174.602 155.417L175.918 154.978V168.347Z" fill="black" stroke="white" stroke-width="2"/>
<path d="M124.847 144.205C124.847 146.418 125.536 148.669 126.975 150.971C128.39 153.135 130.209 154.664 132.439 155.594L133.071 155.857L133.054 156.543L132.75 168.398L132.716 169.729L131.448 169.326C124.941 167.26 119.67 164.195 115.683 160.103L115.673 160.094C111.733 155.941 109.774 150.772 109.774 144.661V143.695L110.739 143.662L123.812 143.206L124.847 143.17V144.205Z" fill="black" stroke="white" stroke-width="2"/>
<path d="M156.31 144.357C156.31 149.632 154.775 154.216 151.681 158.057C148.666 161.8 144.882 165.113 140.343 168.001L139.594 168.478L139.033 167.79L132.192 159.431L131.365 158.419L132.557 157.885C135.33 156.642 137.569 154.784 139.289 152.3L139.295 152.289L139.303 152.279C141.109 149.809 141.999 147.126 141.999 144.205V143.192L143.01 143.205L155.323 143.357L156.31 143.369V144.357Z" fill="black" stroke="white" stroke-width="2"/>
<path d="M134.423 121.773V134.413H133.423C130.987 134.413 128.981 135.343 127.342 137.255L127.334 137.265L127.326 137.274C125.687 139.095 124.847 141.381 124.847 144.205V145.17L123.881 145.205L110.81 145.661L109.774 145.697V144.661C109.774 140.249 110.774 136.319 112.803 132.903L112.808 132.895C114.923 129.404 117.736 126.694 121.239 124.783C124.847 122.769 128.917 121.773 133.423 121.773H134.423Z" fill="black" stroke="white" stroke-width="2"/>
<path d="M133.422 121.773C137.826 121.773 141.794 122.718 145.301 124.631C148.806 126.543 151.528 129.209 153.446 132.619C155.365 136.031 156.31 139.954 156.31 144.357V145.37L155.298 145.357L142.986 145.205L141.999 145.193V144.205C141.998 141.27 141.153 138.937 139.519 137.122C137.885 135.307 135.876 134.413 133.422 134.413H132.422V121.773H133.422Z" fill="black" stroke="white" stroke-width="2"/>
<path d="M160.072 197.435C161.562 202.652 160.888 207.249 157.926 211.088C155.002 214.878 150.203 217.547 143.701 219.198L142.749 219.44L142.49 218.492L140.209 210.132L139.946 209.164L140.915 208.903C143.427 208.227 144.988 207.209 145.814 205.971L145.818 205.964L145.823 205.958C146.746 204.615 146.982 203.057 146.445 201.176L146.167 200.202L147.143 199.937L158.847 196.744L159.8 196.484L160.072 197.435Z" fill="black" stroke="white" stroke-width="2"/>
<path d="M150.43 184.287C155.533 188.036 158.793 192.422 160.08 197.461L160.323 198.415L159.374 198.674L147.669 201.865L146.705 202.129L146.442 201.164C145.93 199.288 143.955 196.927 140.125 194.105L139.137 193.378L140.049 192.558L149.169 184.35L149.774 183.805L150.43 184.287Z" fill="black" stroke="white" stroke-width="2"/>
<path d="M150.831 184.974L153.719 208.989L153.823 209.854L152.982 210.075L142.037 212.964L141.071 213.219L140.816 212.252L136.407 195.531L136.243 194.909L136.741 194.502L149.205 184.318L150.614 183.168L150.831 184.974Z" fill="black" stroke="white" stroke-width="2"/>
<path d="M241.328 152.629L241.447 153.494C242.07 158.066 241.814 162.308 240.657 166.208L240.658 166.209C239.606 169.999 237.811 173.328 235.275 176.182L235.274 176.181C232.843 179.029 229.836 181.241 226.267 182.815C222.679 184.398 218.689 185.181 214.312 185.181H207.61L207.334 184.623L202.015 173.831L201.304 172.389H202.911C209.648 172.389 214.725 171.733 218.211 170.478C221.774 169.13 224.007 167.115 225.091 164.494L225.097 164.481L225.103 164.468C226.318 161.756 226.682 158.211 226.088 153.761L225.937 152.629H241.328Z" fill="black" stroke="white" stroke-width="2"/>
<path d="M215.844 172.389L216.119 172.944L241.199 223.408L241.917 224.853H225.698L225.423 224.296L200.495 173.833L199.782 172.389H215.844Z" fill="black" stroke="white" stroke-width="2"/>
<path d="M238.123 131.653L238.251 132.502L241.444 153.478L241.619 154.628H226.22L226.09 153.779L222.899 132.803L222.723 131.653H238.123Z" fill="black" stroke="white" stroke-width="2"/>
<path d="M254.983 125.877V139.429H192.031V125.877H254.983Z" fill="black" stroke="white" stroke-width="2"/>
<path d="M307.513 240.053H306.513C290.318 240.053 278.197 237.158 270.339 231.186V231.185C262.523 225.269 258.696 216.063 258.696 203.789V202.789H273.92V203.789C273.92 211.758 276.511 217.442 281.552 221.06L282.05 221.398C287.291 224.851 295.392 226.653 306.513 226.653H307.513V240.053Z" fill="black" stroke="white" stroke-width="2"/>
<path d="M326.057 125.877V139.429H245.32V125.877H326.057Z" fill="black" stroke="white" stroke-width="2"/>
<path d="M288.513 174.821V187.765H287.513C283.658 187.765 280.433 189.253 277.777 192.288C275.226 195.318 273.92 199.176 273.92 203.941V204.941H258.696V203.941C258.696 198.128 259.891 193.038 262.32 188.708C264.739 184.295 268.112 180.867 272.431 178.445C276.758 176.017 281.797 174.821 287.513 174.821H288.513Z" fill="black" stroke="white" stroke-width="2"/>
<path d="M275.137 168.437V169.437C275.137 171.348 275.726 173.296 276.963 175.294C278.214 177.315 279.909 179.211 282.065 180.975L283.06 181.788L282.028 182.552L273.212 189.088L272.574 189.561L271.97 189.047C268.558 186.153 265.802 183.037 263.713 179.695L263.705 179.683C261.607 176.221 260.521 172.801 260.521 169.437V168.437H275.137Z" fill="black" stroke="white" stroke-width="2"/>
<path d="M286.688 148.373V161.773H285.688C281.943 161.773 279.318 162.517 277.645 163.838C275.989 165.145 275.137 166.967 275.137 169.438V170.438H260.521V169.438C260.521 162.998 262.752 157.837 267.265 154.077C271.757 150.232 277.941 148.373 285.688 148.373H286.688Z" fill="black" stroke="white" stroke-width="2"/>
<path d="M310.856 148.373V161.773H284.688V148.373H310.856Z" fill="black" stroke="white" stroke-width="2"/>
<path d="M310.857 125.877V150.373H295.784V125.877H310.857Z" fill="black" stroke="white" stroke-width="2"/>
<path d="M316.48 206.078L315.562 206.154L302.642 207.217L301.56 207.306V201.532L302.443 201.427L315.363 199.908L316.48 199.776V206.078Z" fill="black" stroke="white" stroke-width="2"/>
<path d="M287.512 174.821C293.206 174.821 298.226 175.907 302.543 178.114C306.848 180.214 310.231 183.219 312.665 187.123L312.901 187.484C315.302 191.25 316.48 195.738 316.48 200.901V201.791L315.597 201.894L302.677 203.414L301.56 203.545V202.42C301.56 197.978 300.217 194.5 297.597 191.88L297.585 191.868L297.573 191.854C295.048 189.142 291.727 187.765 287.512 187.765H286.512V174.821H287.512Z" fill="black" stroke="white" stroke-width="2"/>
<path d="M409.926 125.877V139.429H350.014V125.877H409.926Z" fill="black" stroke="white" stroke-width="2"/>
<path d="M365.719 152.629L365.837 153.494C366.46 158.066 366.204 162.308 365.048 166.208L365.049 166.209C363.996 169.999 362.202 173.328 359.665 176.182L359.664 176.181C357.234 179.029 354.227 181.241 350.657 182.815C347.07 184.398 343.079 185.181 338.702 185.181H332L331.725 184.623L326.406 173.831L325.695 172.389H327.302C334.038 172.389 339.116 171.733 342.602 170.478C346.164 169.13 348.397 167.115 349.482 164.494L349.488 164.481L349.493 164.468C350.709 161.756 351.072 158.211 350.479 153.761L350.327 152.629H365.719Z" fill="black" stroke="white" stroke-width="2"/>
<path d="M340.234 172.389L340.51 172.944L365.59 223.408L366.307 224.853H350.089L349.813 224.296L324.885 173.833L324.173 172.389H340.234Z" fill="black" stroke="white" stroke-width="2"/>
<path d="M362.513 131.653L362.642 132.502L365.834 153.478L366.009 154.628H350.611L350.481 153.779L347.29 132.803L347.114 131.653H362.513Z" fill="black" stroke="white" stroke-width="2"/>
<path d="M379.374 125.877V139.429H316.422V125.877H379.374Z" fill="black" stroke="white" stroke-width="2"/>
<path d="M385.107 161.276C391.053 164.718 396.178 170.015 400.5 177.111L400.911 177.771C405.132 184.637 408.277 192.736 410.358 202.051L410.571 203.005L409.622 203.24L398.525 205.976L397.557 206.214L397.316 205.248C395.099 196.379 392.491 189.33 389.511 184.066C386.544 178.824 382.863 174.962 378.482 172.431L377.603 171.923L378.124 171.052L383.748 161.628L384.252 160.781L385.107 161.276Z" fill="black" stroke="white" stroke-width="2"/>
<path d="M362.423 159.879C365.826 158.177 369.496 157.435 373.412 157.646L373.411 157.647C377.435 157.859 381.338 159.077 385.11 161.277L385.982 161.786L385.465 162.653L379.841 172.077L379.33 172.934L378.472 172.426C375.896 170.899 373.442 170.365 371.079 170.729C368.831 171.089 367.228 172.187 366.171 174.037L365.672 174.91L364.802 174.407L355.073 168.783L354.227 168.294L354.697 167.437C356.514 164.123 359.09 161.599 362.411 159.885L362.423 159.879Z" fill="black" stroke="white" stroke-width="2"/>
<path d="M379.832 181.981L385.304 190.798L385.798 191.594L385.035 192.139C381.345 194.775 377.362 196.215 373.104 196.428H373.092L373.08 196.429C368.939 196.535 365.056 195.523 361.451 193.402L360.571 192.885L361.106 192.016L366.73 182.896L367.235 182.078L368.072 182.549C369.505 183.355 371.069 183.672 372.797 183.49L372.803 183.489C374.678 183.302 376.576 182.691 378.5 181.633L379.331 181.176L379.832 181.981Z" fill="black" stroke="white" stroke-width="2"/>
<path d="M356.074 167.051L365.803 172.675L366.689 173.188L366.155 174.062C365.167 175.68 364.872 177.288 365.211 178.932C365.648 180.474 366.587 181.675 368.089 182.559L368.969 183.077L368.433 183.946L362.809 193.065L362.296 193.898L361.452 193.403C358.378 191.601 355.972 189.255 354.258 186.363L354.251 186.351L354.244 186.339C352.641 183.454 351.838 180.348 351.838 177.037V177.006C351.945 173.587 352.909 170.379 354.719 167.398L355.227 166.562L356.074 167.051Z" fill="black" stroke="white" stroke-width="2"/>
</svg>
